<svg xmlns="http://www.w3.org/2000/svg" width="100" height="100" viewBox="0 0 100 100" fill="none">
  <path d="M10.4147 37.5H89.5814M41.6647 12.5L33.3314 37.5L49.9981 85.4167L66.6647 37.5L58.3314 12.5M52.5588 84.4271L89.8864 39.6339C90.5191 38.8748 90.8354 38.4952 90.9563 38.0715C91.0628 37.698 91.0628 37.302 90.9563 36.9285C90.8354 36.5048 90.5191 36.1252 89.8864 35.366L71.8309 13.6994C71.4635 13.2585 71.2798 13.0381 71.0546 12.8796C70.8551 12.7392 70.6325 12.6349 70.3969 12.5715C70.131 12.5 69.844 12.5 69.2702 12.5H30.726C30.1521 12.5 29.8652 12.5 29.5993 12.5715C29.3637 12.6349 29.141 12.7392 28.9415 12.8796C28.7163 13.0381 28.5326 13.2585 28.1652 13.6994L10.1097 35.366C9.47707 36.1252 9.16076 36.5048 9.03989 36.9285C8.93332 37.302 8.93332 37.6979 9.03989 38.0715C9.16076 38.4952 9.47707 38.8748 10.1097 39.6339L47.4373 84.4271C48.3167 85.4824 48.7564 86.01 49.2829 86.2025C49.7447 86.3713 50.2514 86.3713 50.7133 86.2025C51.2397 86.01 51.6794 85.4824 52.5588 84.4271Z" stroke="#F7CA3A" stroke-width="2" stroke-linecap="round" stroke-linejoin="round"/>
</svg>