<svg xmlns="http://www.w3.org/2000/svg" width="100" height="100" viewBox="0 0 100 100" fill="none">
  <path d="M58.5404 24.9999C62.6101 25.7939 66.3504 27.7843 69.2824 30.7163C72.2143 33.6483 74.2047 37.3885 74.9987 41.4582M58.5404 8.33325C66.9957 9.27257 74.8804 13.059 80.8997 19.0708C86.9191 25.0826 90.7155 32.9625 91.6654 41.4166M42.6112 57.7627C37.6046 52.7561 33.6513 47.0951 30.7513 41.055C30.5019 40.5355 30.3771 40.2757 30.2813 39.947C29.9408 38.7789 30.1854 37.3445 30.8938 36.3552C31.0931 36.0768 31.3313 35.8386 31.8076 35.3623C33.2643 33.9056 33.9926 33.1773 34.4688 32.4449C36.2646 29.6828 36.2646 26.1221 34.4688 23.36C33.9926 22.6276 33.2643 21.8993 31.8076 20.4426L30.9956 19.6306C28.7813 17.4163 27.6741 16.3091 26.485 15.7077C24.1202 14.5116 21.3274 14.5116 18.9626 15.7077C17.7735 16.3091 16.6663 17.4163 14.452 19.6306L13.7952 20.2875C11.5884 22.4942 10.485 23.5976 9.64231 25.0977C8.70722 26.7623 8.03488 29.3477 8.04056 31.257C8.04568 32.9776 8.37945 34.1535 9.04698 36.5054C12.6344 49.1445 19.403 61.071 29.3529 71.021C39.3028 80.9709 51.2293 87.7395 63.8685 91.3269C66.2203 91.9944 67.3963 92.3282 69.1169 92.3333C71.0261 92.339 73.6115 91.6666 75.2761 90.7316C76.7763 89.8889 77.8796 88.7855 80.0864 86.5787L80.7432 85.9219C82.9576 83.7076 84.0647 82.6004 84.6662 81.4113C85.8623 79.0465 85.8623 76.2537 84.6662 73.8889C84.0647 72.6998 82.9576 71.5926 80.7432 69.3783L79.9313 68.5663C78.4746 67.1096 77.7462 66.3813 77.0138 65.9051C74.2518 64.1093 70.691 64.1093 67.929 65.9051C67.1966 66.3813 66.4682 67.1096 65.0115 68.5663C64.5352 69.0426 64.2971 69.2807 64.0187 69.4801C63.0294 70.1885 61.595 70.4331 60.4269 70.0925C60.0981 69.9967 59.8384 69.872 59.3188 69.6226C53.2787 66.7226 47.6177 62.7693 42.6112 57.7627Z" stroke="#F7CA3A" stroke-width="2" stroke-linecap="round" stroke-linejoin="round"/>
</svg>