<svg xmlns="http://www.w3.org/2000/svg" width="100" height="100" viewBox="0 0 100 100" fill="none">
  <path d="M37.5002 77.0832H62.5002M27.5002 8.33325H72.5002C74.8337 8.33325 76.0005 8.33325 76.8918 8.78739C77.6758 9.18686 78.3132 9.82428 78.7127 10.6083C79.1668 11.4996 79.1668 12.6664 79.1668 14.9999V23.6437C79.1668 25.682 79.1668 26.7011 78.9366 27.6602C78.7324 28.5105 78.3957 29.3234 77.9388 30.069C77.4235 30.9099 76.7029 31.6306 75.2616 33.0718L63.0475 45.2859C61.3975 46.9359 60.5724 47.761 60.2633 48.7123C59.9914 49.5492 59.9914 50.4506 60.2633 51.2875C60.5724 52.2389 61.3975 53.0639 63.0475 54.714L75.2616 66.928C76.7028 68.3693 77.4235 69.0899 77.9388 69.9309C78.3957 70.6765 78.7324 71.4893 78.9366 72.3396C79.1668 73.2987 79.1668 74.3178 79.1668 76.3561V84.9999C79.1668 87.3335 79.1668 88.5002 78.7127 89.3915C78.3132 90.1756 77.6758 90.813 76.8918 91.2124C76.0005 91.6666 74.8337 91.6666 72.5002 91.6666H27.5002C25.1666 91.6666 23.9998 91.6666 23.1085 91.2124C22.3245 90.813 21.6871 90.1756 21.2876 89.3915C20.8335 88.5002 20.8335 87.3335 20.8335 84.9999V76.3561C20.8335 74.3178 20.8335 73.2987 21.0637 72.3396C21.2679 71.4893 21.6046 70.6765 22.0615 69.9309C22.5768 69.0899 23.2975 68.3693 24.7387 66.928L36.9528 54.714C38.6029 53.0639 39.4279 52.2389 39.737 51.2875C40.0089 50.4506 40.0089 49.5492 39.737 48.7123C39.4279 47.761 38.6028 46.9359 36.9528 45.2859L24.7387 33.0718C23.2975 31.6306 22.5768 30.9099 22.0615 30.069C21.6046 29.3234 21.2679 28.5105 21.0637 27.6602C20.8335 26.7011 20.8335 25.682 20.8335 23.6437V14.9999C20.8335 12.6664 20.8335 11.4996 21.2876 10.6083C21.6871 9.82428 22.3245 9.18686 23.1085 8.78739C23.9998 8.33325 25.1666 8.33325 27.5002 8.33325Z" stroke="#F7CA3A" stroke-width="2" stroke-linecap="round" stroke-linejoin="round"/>
</svg>