<svg xmlns="http://www.w3.org/2000/svg" width="100" height="100" viewBox="0 0 100 100" fill="none">
  <path d="M58.3333 29.1667H68.0718C69.091 29.1667 69.6005 29.1667 70.08 29.2819C70.5052 29.3839 70.9116 29.5523 71.2844 29.7807C71.7049 30.0384 72.0652 30.3987 72.7859 31.1194L89.714 48.0475C90.4346 48.7681 90.7949 49.1284 91.0526 49.5489C91.281 49.9217 91.4494 50.3281 91.5515 50.7533C91.6666 51.2328 91.6666 51.7424 91.6666 52.7615V64.5834C91.6666 66.5248 91.6666 67.4956 91.3494 68.2613C90.9265 69.2822 90.1154 70.0934 89.0944 70.5163C88.3287 70.8334 87.358 70.8334 85.4166 70.8334M64.5832 70.8334H58.3333M58.3333 70.8334V30.0001C58.3333 25.333 58.3333 22.9994 57.425 21.2168C56.626 19.6488 55.3512 18.374 53.7832 17.575C52.0006 16.6667 49.667 16.6667 44.9999 16.6667H21.6666C16.9995 16.6667 14.6659 16.6667 12.8833 17.575C11.3153 18.374 10.0405 19.6488 9.24153 21.2168C8.33325 22.9994 8.33325 25.333 8.33325 30.0001V62.5001C8.33325 67.1025 12.0642 70.8334 16.6666 70.8334M58.3333 70.8334H41.6666M41.6666 70.8334C41.6666 77.737 36.0701 83.3334 29.1666 83.3334C22.263 83.3334 16.6666 77.737 16.6666 70.8334M41.6666 70.8334C41.6666 63.9299 36.0701 58.3334 29.1666 58.3334C22.263 58.3334 16.6666 63.9299 16.6666 70.8334M85.4166 72.9168C85.4166 78.6697 80.7529 83.3334 74.9999 83.3334C69.2469 83.3334 64.5832 78.6697 64.5832 72.9168C64.5832 67.1638 69.2469 62.5001 74.9999 62.5001C80.7529 62.5001 85.4166 67.1638 85.4166 72.9168Z" stroke="#F7CA3A" stroke-width="2" stroke-linecap="round" stroke-linejoin="round"/>
</svg>