<svg xmlns="http://www.w3.org/2000/svg" width="100" height="100" viewBox="0 0 100 100" fill="none">
  <path d="M18.7499 91.6666V70.8332M18.7499 29.1666V8.33325M8.33325 18.7499H29.1666M8.33325 81.2499H29.1666M54.1666 12.4999L46.9408 31.2868C45.7658 34.342 45.1783 35.8695 44.2646 37.1544C43.4549 38.2932 42.4599 39.2882 41.3211 40.098C40.0362 41.0116 38.5086 41.5991 35.4535 42.7742L16.6666 49.9999L35.4535 57.2257C38.5086 58.4007 40.0362 58.9882 41.3211 59.9019C42.4599 60.7116 43.4549 61.7066 44.2646 62.8454C45.1783 64.1303 45.7658 65.6579 46.9408 68.713L54.1666 87.4999L61.3923 68.713C62.5674 65.6579 63.1549 64.1303 64.0685 62.8454C64.8783 61.7066 65.8733 60.7116 67.0121 59.9019C68.297 58.9882 69.8245 58.4007 72.8797 57.2257L91.6666 49.9999L72.8797 42.7742C69.8245 41.5991 68.297 41.0116 67.0121 40.098C65.8733 39.2882 64.8783 38.2932 64.0685 37.1544C63.1549 35.8695 62.5674 34.342 61.3923 31.2868L54.1666 12.4999Z" stroke="#F7CA3A" stroke-width="2" stroke-linecap="round" stroke-linejoin="round"/>
</svg>