<svg xmlns="http://www.w3.org/2000/svg" width="66" height="86" viewBox="0 0 66 86" fill="none">
<path d="M15.7861 57.4163L12.1667 84.6666L31.285 73.1956C31.9086 72.8215 32.2203 72.6344 32.5532 72.5613C32.8475 72.4967 33.1525 72.4967 33.4469 72.5613C33.7797 72.6344 34.0914 72.8215 34.715 73.1956L53.8333 84.6666L50.2163 57.4045M51.4412 10.7036C52.0847 12.2599 53.3199 13.497 54.8752 14.1429L60.3289 16.4019C61.8853 17.0466 63.1218 18.2832 63.7665 19.8397C64.4112 21.3961 64.4112 23.1449 63.7665 24.7014L61.5091 30.1514C60.8642 31.7085 60.8633 33.4591 61.5112 35.0155L63.7646 40.4639C64.0842 41.2348 64.2488 42.0611 64.2489 42.8956C64.249 43.7301 64.0847 44.5565 63.7654 45.3275C63.4461 46.0985 62.9779 46.799 62.3878 47.389C61.7976 47.979 61.097 48.4469 60.3259 48.766L54.8761 51.0234C53.3198 51.667 52.0828 52.9022 51.437 54.4575L49.178 59.9114C48.5333 61.4679 47.2967 62.7045 45.7403 63.3492C44.1839 63.9939 42.4352 63.9939 40.8788 63.3492L35.429 61.0917C33.8726 60.4486 32.1245 60.4499 30.569 61.0954L25.1153 63.3512C23.5598 63.9944 21.8125 63.9939 20.2574 63.3497C18.7023 62.7055 17.4664 61.4704 16.8213 59.9156L14.5616 54.4601C13.9181 52.9038 12.683 51.6667 11.1276 51.0208L5.67395 48.7618C4.11823 48.1173 2.88205 46.8815 2.23713 45.326C1.59221 43.7704 1.59134 42.0224 2.2347 40.4662L4.49207 35.0162C5.13517 33.4597 5.13386 31.7115 4.48842 30.156L2.23429 24.6982C1.9147 23.9273 1.75013 23.101 1.75 22.2665C1.74987 21.432 1.91416 20.6056 2.23351 19.8346C2.55285 19.0636 3.02098 18.3631 3.61115 17.7731C4.20132 17.1831 4.90195 16.7152 5.67302 16.3961L11.1228 14.1386C12.6777 13.4957 13.914 12.262 14.5603 10.7084L16.8193 5.25453C17.464 3.69808 18.7006 2.46148 20.2569 1.81678C21.8133 1.17208 23.5621 1.17208 25.1185 1.81678L30.5683 4.07424C32.1247 4.71735 33.8728 4.71604 35.4283 4.07058L40.8843 1.82028C42.4405 1.17594 44.1889 1.17607 45.7449 1.82065C47.301 2.46522 48.5374 3.70147 49.1822 5.25751L51.4419 10.713L51.4412 10.7036Z" stroke="#F7CA3A" stroke-width="2" stroke-linecap="round" stroke-linejoin="round"/>
</svg>