<svg xmlns="http://www.w3.org/2000/svg" width="100" height="100" viewBox="0 0 100 100" fill="none">
  <path d="M58.3334 45.8333H33.3334M41.6667 62.4999H33.3334M66.6668 29.1666H33.3334M83.3334 41.6666V28.3333C83.3334 21.3326 83.3334 17.8323 81.971 15.1584C80.7726 12.8063 78.8603 10.8941 76.5083 9.69567C73.8344 8.33325 70.3341 8.33325 63.3334 8.33325H36.6668C29.6661 8.33325 26.1658 8.33325 23.4919 9.69567C21.1398 10.8941 19.2276 12.8063 18.0292 15.1584C16.6667 17.8323 16.6667 21.3326 16.6667 28.3333V71.6666C16.6667 78.6672 16.6667 82.1676 18.0292 84.8415C19.2276 87.1935 21.1398 89.1057 23.4919 90.3042C26.1658 91.6666 29.6661 91.6666 36.6668 91.6666H52.0834M75.0001 87.4999C75.0001 87.4999 87.5001 81.542 87.5001 72.605V62.1786L78.3851 58.9216C76.1951 58.1371 73.8001 58.1371 71.6101 58.9216L62.5001 62.1786V72.605C62.5001 81.542 75.0001 87.4999 75.0001 87.4999Z" stroke="#F7CA3A" stroke-width="2" stroke-linecap="round" stroke-linejoin="round"/>
</svg>