<svg xmlns="http://www.w3.org/2000/svg" width="100" height="100" viewBox="0 0 100 100" fill="none">
  <path d="M37.4999 45.8333L45.8333 54.1667L64.5832 35.4167M49.9714 21.3992C41.6407 11.66 27.7489 9.04018 17.3111 17.9584C6.87343 26.8766 5.40395 41.7874 13.6007 52.335C19.792 60.3018 37.3803 76.2956 45.6166 83.6454C47.1307 84.9964 47.8877 85.672 48.7742 85.9379C49.5438 86.1688 50.399 86.1688 51.1686 85.9379C52.055 85.672 52.8121 84.9964 54.3261 83.6454C62.5625 76.2956 80.1508 60.3018 86.342 52.335C94.5388 41.7874 93.2487 26.7828 82.6316 17.9584C72.0145 9.13399 58.302 11.66 49.9714 21.3992Z" stroke="#F7CA3A" stroke-width="2" stroke-linecap="round" stroke-linejoin="round"/>
</svg>