<svg xmlns="http://www.w3.org/2000/svg" width="100" height="100" viewBox="0 0 100 100" fill="none">
  <path d="M70.8333 37.4998C70.8333 35.3672 70.0197 33.2346 68.3926 31.6074C66.7654 29.9803 64.6327 29.1667 62.5 29.1667M62.5 62.5C76.3071 62.5 87.5 51.3071 87.5 37.5C87.5 23.6929 76.3071 12.5 62.5 12.5C48.6929 12.5 37.5 23.6929 37.5 37.5C37.5 38.6403 37.5763 39.7628 37.7242 40.8627C37.9674 42.6716 38.089 43.576 38.0071 44.1483C37.9219 44.7444 37.8133 45.0656 37.5195 45.5912C37.2375 46.0958 36.7405 46.5929 35.7464 47.5869L14.4526 68.8807C13.732 69.6013 13.3717 69.9617 13.114 70.3821C12.8855 70.7549 12.7172 71.1614 12.6151 71.5865C12.5 72.0661 12.5 72.5756 12.5 73.5948V80.8333C12.5 83.1669 12.5 84.3337 12.9541 85.225C13.3536 86.009 13.991 86.6464 14.775 87.0459C15.6663 87.5 16.8331 87.5 19.1667 87.5H29.1667V79.1667H37.5V70.8333H45.8333L52.4131 64.2536C53.4071 63.2595 53.9042 62.7625 54.4088 62.4805C54.9344 62.1867 55.2556 62.0781 55.8517 61.9928C56.4239 61.911 57.3284 62.0326 59.1373 62.2758C60.2372 62.4237 61.3597 62.5 62.5 62.5Z" stroke="#F7CA3A" stroke-width="2" stroke-linecap="round" stroke-linejoin="round"/>
</svg>